<?xml version="1.0" encoding="UTF-8"?>
<svg xmlns="http://www.w3.org/2000/svg" viewBox="0 0 3500 3500">
  <defs>
    <style>
      .cls-1 {
        fill: none;
        stroke: #ccc;
        stroke-linecap: round;
        stroke-miterlimit: 10;
        stroke-width: 250px;
      }

      .cls-2 {
        fill: #c1c1c1;
        stroke-width: 0px;
      }
    </style>
  </defs>
  <g id="Layer_1" data-name="Layer 1">
    <path class="cls-2" d="M3093.5,1740.5c-114.09,133.8-383.69,411.87-825,549-265.92,82.63-499.76,84.75-654,73l-228,228c182.71,32.8,591.82,80.49,1059-95,561.47-210.91,860.47-614.07,961-764-65.65-92.98-154.22-202.38-271-313-115.19-109.11-227.64-190.83-323-251-55.67,55.67-111.33,111.33-167,167,73.34,48.32,155.91,109.74,241,187,83.95,76.22,152.28,151.45,207,219Z"/>
    <path class="cls-2" d="M717.5,2316.5c61.33-62.67,122.67-125.33,184-188-73.48-38.82-159.49-91.62-249-163-97.79-77.99-173.37-157.12-230-225,102.75-121.13,277.1-294.91,538-431,409.08-213.39,794.26-210.67,971-198l213-219c-181.83-34.72-752.82-119.44-1343,197-376.72,201.99-598.32,480.08-707,640,82.67,117.8,199.1,258.57,359,395,92.09,78.58,182.06,141.6,264,192Z"/>
    <path class="cls-2" d="M1276.5,1761.5c-1.47-30.67-7.61-228.97,150-384,154.93-152.38,348.78-145.62,380-144-176.67,176-353.33,352-530,528Z"/>
    <path class="cls-2" d="M2279.48,1703.48c1.47,30.67,7.61,228.97-150,384-154.93,152.38-348.78,145.62-380,144,176.67-176,353.33-352,530-528Z"/>
  </g>
  <g id="Layer_2" data-name="Layer 2">
    <line class="cls-1" x1="2755.22" y1="738.44" x2="755.22" y2="2738.44"/>
  </g>
</svg>